<svg id="Capa_1" enable-background="new 0 0 512.01 512.01" height="512" viewBox="0 0 512.01 512.01" width="512" xmlns="http://www.w3.org/2000/svg"><g><g><path d="m268.82 104.812c-31.473-31.47-75.518-35.335-98.94-34.827-16.979.362-30.562 13.945-30.924 30.923-.501 23.442 3.356 67.47 34.827 98.941 15.159 15.159 35.419 24.958 57.175 20.796 14.114-2.7 27.703-10.662 37.463-21.196 3.298-3.056 21.341-20.9 22.169-46.153.562-17.164-6.762-33.477-21.77-48.484zm-14.071 80.04c-7.312 6.404-14.095 12.362-23.73 15.217-16.372 4.852-31.614-2.884-43.093-14.363-26.219-26.22-29.407-64.115-28.974-84.371.133-6.234 5.12-11.222 11.354-11.354 20.271-.458 58.152 2.755 84.371 28.974 10.892 10.892 16.251 22.175 15.927 33.536-.526 18.475-15.733 32.251-15.855 32.361-.307.268.122-.11 0 0z"/><path d="m111.92 321.254c2.946 4.376 8.912 5.72 13.452 3.03 4.693-2.781 6.227-9.053 3.438-13.718-2.783-4.656-8.947-6.182-13.616-3.482-4.91 2.839-6.417 9.46-3.274 14.17.37.55-.36-.54 0 0z"/><path d="m511.262 372.918c-.438-3.665-1.054-7.279-1.879-10.817 6.998-28.874.001-60.659-20.822-94.527-17.263-28.077-40.581-51.838-57.104-66.828-12.54-11.373-27.29-19.316-43.404-24.314-27.149-8.473-49.695-30.549-58.834-57.604-3.213-9.539-7.808-18.66-13.656-27.112-5.909-8.539-12.929-16.181-20.858-22.708-70.799-58.334-138.396-61.549-172.394-58.268-23.233 2.245-40.351 19.363-42.597 42.598-2.311 23.961-.111 49.574 6.358 74.073 9.112 34.502 26.573 67.581 51.899 98.319 13.032 15.811 30.722 28.066 49.814 34.513 13.189 4.449 25.546 12.304 35.738 22.718 2.26 2.307 4.387 4.748 6.398 7.276-24.251-4.805-48.415-4.491-72.301.994-5.383 1.235-8.744 6.602-7.508 11.984 1.235 5.382 6.603 8.745 11.984 7.508 2.594-.596 5.194-1.118 7.797-1.575-3.614 10.681-8.075 26.159-11.226 44.835-12.268 2.006-26.075 3.561-42.519 3.561-34.628 0-56.509-14.545-69.392-28.121 5.498 2.743 10.921 5.053 16.226 6.895 4.128 1.433 8.446 2.413 12.836 2.916 5.481.619 10.444-3.312 11.072-8.799.628-5.486-3.312-10.444-8.799-11.072-2.933-.335-5.811-.988-8.553-1.939-8.881-3.082-18.263-7.746-27.886-13.861-17.777-11.301-41.652 1.906-41.652 22.862v31.966c0 35.656 15.354 69.062 42.127 91.652 28.34 23.912 59.259 39.802 91.9 47.226 26.577 6.047 54.178 6.349 80.974 1.589 36.11-6.414 63.023-20.377 74.014-26.814 31.837 17.691 61.182 26.452 92.126 27.057 14.805 1.64 31.446-1.584 45.877-4.626 26.28-5.54 48.266-19.759 63.58-41.12 13.801-19.25 21.402-43.564 21.402-68.464 0-3.712-.227-7.374-.623-10.988-.022-.331-.06-.659-.115-.985-.438-3.665.055.326 0 0zm-328.765-3.034c25.487-5.08 43.899-8.749 70.733 2.729 3.34 1.429 6.641 3.093 9.81 4.946 7.4 4.326 27.095 13.102 50.08 1.182 21.692-11.252 44.928-20.899 69.251-24.347 2.432 20.956 3.987 45.526 2.592 69.863-23.163 1.887-45.355-1.762-64.805-10.93-31.37-14.785-54.431-3.943-66.818 1.881-32.832 15.438-64.744 15.279-76.509 14.556-2.942-21.542-2.335-41.768-.396-58.68 0 0 4.075-.804 6.062-1.2zm219.939-17.028c25.343-.296 54.415 5.675 84.621 24.264-11.515 13.129-33.071 28.476-61.652 38.432-6.747 2.35-13.497 4.243-20.209 5.691 1.105-24.06-.408-47.882-2.76-68.387zm-73.482-91.952c7.22-6.339 13.94-12.228 23.431-15.122 16.454-5.018 31.828 2.714 43.389 14.275 7.059 7.059 12.892 15.389 17.431 24.875-33.789-2.299-68.051 2.724-99.618 15.056-3.597-21.831 14.516-38.324 15.367-39.084.328-.288-.851.76 0 0zm83.684 44.039c15.102 1.098 29.299 4.308 42.257 12.491 13.499 8.525 24.243 21.118 30.571 35.773-30.647-16.094-59.959-21.09-85.712-20.392-1.775-11.622-3.642-21.377-5.113-28.4 5.814-.079 11.819.081 17.997.528.313.022-6.178-.447 0 0zm-174.824-35.974c-12.384-12.654-27.473-22.225-43.633-27.676-15.604-5.268-30.085-15.313-40.775-28.282-53.743-65.226-56.765-126.834-53.785-157.751 1.318-13.634 10.979-23.295 24.611-24.612 30.913-2.982 92.519.046 157.757 53.798 6.507 5.355 12.27 11.631 17.127 18.65 4.783 6.912 8.534 14.352 11.151 22.123 11.153 33.02 38.677 59.958 71.844 70.309 13.344 4.138 25.517 10.607 35.909 20.031 20.968 19.023 62.75 61.689 72.073 106.862-13.624-17.012-32.758-29.249-53.957-34.341-5.894-16.468-14.691-30.636-26.221-42.166-15.009-15.01-31.313-22.302-48.486-21.772-25.126.823-42.916 18.69-46.102 22.115-11.154 10.031-27.63 34.279-20.377 62.086-2.506 1.285-4.657 2.458-6.385 3.445-9.985-5.366-19.981-9.858-29.976-13.494-5.224-10.721-12.198-20.57-20.775-29.325-12.383-12.654 8.577 8.755 0 0zm10.101 46.796c9.536 3.427 18.876 7.26 27.885 11.913 2.951 1.524 5.807 3.332 8.819 4.722 3.108 1.436 6.891 1.16 9.748-.743 9.716-6.429 20.917-11.059 31.853-14.954 14.379-5.121 29.326-8.666 44.466-10.598 1.245-.159 2.492-.307 3.74-.444 1.391 6.527 3.362 16.555 5.257 28.857-26.617 3.8-52.025 14.146-75.772 26.47-14.156 7.34-26.237 1.959-30.775-.693-3.886-2.273-7.938-4.315-12.04-6.07-32.07-13.719-55.035-9.424-81.372-4.18 3.935-19.972 9.265-35.369 12.247-43.109 19.006-.491 37.96 2.742 55.944 8.829 9.536 3.426-17.984-6.087 0 0zm-131.765 61.78c15.228 0 28.215-1.215 39.81-2.9-1.713 18.267-1.542 36.135.484 53.35-49.143-5.749-84.794-26.151-106.085-60.782-2.992-4.867-5.502-9.726-7.607-14.439 15.424 12.495 39.267 24.771 73.398 24.771zm-61.125 57.213c-22.258-18.782-35.025-46.617-35.025-76.367v-8.642c3.016 8.492 7.145 17.737 12.797 27.078 11.833 19.557 27.888 35.503 47.718 47.396 21.988 13.186 48.62 21.302 79.265 24.217 2.441 11.576 5.777 22.783 9.986 33.54-10.754-.485-21.365-1.922-31.772-4.32-29.32-6.754-57.234-21.188-82.969-42.902zm228.18 17.375c-.292.196-29.688 19.738-72.464 27.167-6.509 1.131-12.993 1.918-19.442 2.38-4.663-10.584-8.145-21.219-10.672-31.698 1.532.046 3.191.076 4.982.076 17.304 0 46.192-2.623 76.241-16.751 14.191-6.673 28.676-11.839 49.781-1.889 21.647 10.202 46.062 14.551 71.436 13.02-1.605 11.983-4.096 23.638-7.74 34.479-26.938-1.594-52.636-10.37-81.502-27.144-3.31-1.922-7.443-1.779-10.62.36zm139.689 22.77c-9.166 1.932-17.974 3.213-26.561 3.84 3.443-11.781 5.766-24.19 7.217-36.785 9.444-1.715 18.951-4.216 28.434-7.52 22.439-7.817 43.25-19.659 58.608-32.834-5.439 32.577-26.96 64.712-67.698 73.299z"/></g></g></svg>